<svg xmlns="http://www.w3.org/2000/svg" fill="none" viewBox="0 0 8 7"><path fill="#C60A1D" d="M7.671 5.307a.822.822 0 0 1-.822.822H1.096a.822.822 0 0 1-.822-.822V1.608c0-.453.368-.821.822-.821H6.85c.454 0 .822.368.822.821v3.699z"/><path fill="#FFC400" d="M.274 2.225h7.397V4.69H.274V2.225z"/><path fill="#EA596E" d="M2.124 3.252v.617a.616.616 0 1 0 1.232 0v-.617H2.124z"/><path fill="#F4A2B2" d="M2.74 3.047h.616v.616H2.74v-.616z"/><path fill="#DD2E44" d="M2.124 3.047h.616v.616h-.616v-.616z"/><path fill="#EA596E" d="M2.74 3.047c.34 0 .616-.138.616-.309 0-.17-.276-.308-.616-.308-.34 0-.616.138-.616.308 0 .17.276.309.616.309z"/><path fill="#FFAC33" d="M2.74 2.738c.34 0 .616-.069.616-.154 0-.085-.276-.154-.616-.154-.34 0-.616.07-.616.154 0 .085.276.154.616.154z"/><path fill="#99AAB5" d="M1.712 3.047h.205v1.438h-.205V3.047zm1.85 0h.205v1.438H3.56V3.047z"/><path fill="#66757F" d="M1.508 4.28h.616v.205h-.616v-.206zm1.849 0h.616v.205h-.616v-.206zM1.713 2.84h.206v.205h-.206V2.84zm1.85 0h.205v.205h-.206V2.84z"/></svg>