<svg xmlns="http://www.w3.org/2000/svg" fill="none" viewBox="0 0 8 7"><path fill="#B22334" d="M7.829 1.198A.818.818 0 0 0 7.12.787H4.244v.41H7.83zM.546 4.896h7.397v.41H.546v-.41zm3.698-1.644h3.699v.411H4.244v-.41zm0-.822h3.699v.411H4.244v-.41zM.546 4.074h7.397v.411H.546v-.411zm.822 2.055H7.12a.818.818 0 0 0 .708-.411H.659a.82.82 0 0 0 .709.41zm2.876-4.52h3.699v.41H4.244v-.41z"/><path fill="#EEE" d="M.56 5.446a.874.874 0 0 0 .03.118.96.96 0 0 0 .07.153h7.169a.867.867 0 0 0 .114-.41H.546a.78.78 0 0 0 .014.14zm-.014-.961h7.397v.41H.546v-.41zm0-.822v.41h7.397v-.41H.546zm3.698-.822h3.699v.411H4.244v-.41zm0-.822h3.699v.411H4.244v-.41zM.546 1.61zm.114-.412v.001zm-.088.215c.005-.021.013-.041.02-.061a.776.776 0 0 0-.02.06zm3.672.196h3.699a.764.764 0 0 0-.046-.258.864.864 0 0 0-.068-.153H4.244v.411z"/><path fill="#3C3B6E" d="M4.244.787H1.368a.822.822 0 0 0-.822.821v2.055h3.698V.787z"/><path fill="#fff" d="m.958 1.346.127.093-.049.149.127-.092.127.092-.049-.15.127-.092h-.157l-.048-.149-.049.15H.958zm.41.411.127.093-.048.149.127-.092.127.092-.049-.15.127-.092h-.157l-.048-.149-.049.15h-.157zm.822 0 .127.093-.048.149.127-.092.127.092-.049-.15.127-.092h-.157l-.048-.149-.049.15H2.19zm.822 0 .127.093-.048.149.126-.092.127.092-.048-.15.127-.092h-.157l-.049-.149-.048.15h-.157zm-1.644.822.127.093-.048.148.127-.092.127.092-.049-.148.127-.093h-.157l-.048-.149-.049.15h-.157zm.822 0 .127.093-.048.148.127-.092.127.092-.049-.148.127-.093h-.157l-.048-.149-.049.15H2.19zm.822 0 .127.093-.048.148.126-.092.127.092-.048-.148.127-.093h-.157l-.049-.149-.048.15h-.157zM1.78 1.346l.127.093-.048.149.127-.092.127.092-.049-.15.127-.092h-.157l-.048-.149-.049.15H1.78zm.822 0 .127.093-.048.149.127-.092.126.092-.048-.15.127-.092h-.157l-.048-.149-.049.15h-.157zm.822 0 .127.093-.048.149.126-.092.127.092-.048-.15.127-.092h-.157l-.049-.149-.048.15h-.157zm-2.465.822.127.093-.049.149.127-.092.127.092-.049-.15.127-.092h-.157l-.048-.149-.049.15H.958zm.9.242.127-.092.127.092-.049-.15.127-.092h-.157l-.048-.149-.049.15H1.78l.127.092-.048.149zm.743-.242.127.093-.048.149.127-.092.126.092-.048-.15.127-.092h-.157l-.048-.149-.049.15h-.157zm.822 0 .127.093-.048.149.126-.092.127.092-.048-.15.127-.092h-.157l-.049-.149-.048.15h-.157zM.958 2.99l.127.092-.049.15.127-.093.127.092-.049-.149.127-.092h-.157l-.048-.149-.049.15H.958zm.9.241.127-.092.127.092-.049-.149.127-.092h-.157l-.048-.149-.049.15H1.78l.127.091-.048.15zm.743-.24.127.091-.048.15.127-.093.126.092-.048-.149.127-.092h-.157l-.048-.149-.049.15h-.157zm.822 0 .127.091-.048.15.126-.093.127.092-.048-.149.127-.092h-.157l-.049-.149-.048.15h-.157z"/></svg>