<svg xmlns="http://www.w3.org/2000/svg" fill="none" viewBox="0 0 9 7"><g opacity=".8"><path fill="#009B3A" d="M8.214 5.307a.822.822 0 0 1-.822.822H1.639a.822.822 0 0 1-.822-.822V1.608c0-.453.368-.821.822-.821h5.753c.454 0 .822.368.822.821v3.699z"/><path fill="#FEDF01" d="M7.54 3.458 4.516 5.743 1.489 3.458l3.026-2.286L7.54 3.458z"/><path fill="#002776" d="M4.511 4.77a1.327 1.327 0 1 0 0-2.654 1.327 1.327 0 0 0 0 2.653z"/><path fill="#CBE9D4" d="M3.339 2.818a1.316 1.316 0 0 0-.138.415c.82-.06 1.935.389 2.413.944a1.33 1.33 0 0 0 .181-.411c-.59-.577-1.627-.952-2.456-.948z"/><path fill="#88C9F9" d="M3.284 3.506h.205v.205h-.205v-.205zm.205.41h.206v.206h-.206v-.205z"/><path fill="#55ACEE" d="M3.9 3.505h.205v.206h-.206v-.206zm.41.206h.206v.205H4.31v-.205zm.822.41h.206v.206h-.206v-.205zm-.616.206h.205v.206h-.205v-.206zm.616-1.233h.206V3.3h-.206v-.206z"/><path fill="#3B88C3" d="M4.721 3.916h.206v.206H4.72v-.206z"/></g></svg>